<svg class="railroad-diagram" width="290" height="120" viewBox="0 0 290 120">
<g transform="translate(.5 .5)">
<path d="M 20 21 v 20 m 10 -20 v 20 m -10 -10 h 20.5"></path>
<path d="M40 31h10"></path>
<g>
<path d="M50 31h0"></path>
<path d="M240 31h0"></path>
<path d="M50 31h10"></path>
<g>
<path d="M60 31h0"></path>
<path d="M230 31h0"></path>
<g>
<path d="M60 31h0"></path>
<path d="M168 31h0"></path>
<path d="M60 31h20"></path>
<g>
<path d="M80 31h68"></path>
</g>
<path d="M148 31h20"></path>
<path d="M60 31a10 10 0 0 1 10 10v0a10 10 0 0 0 10 10"></path>
<g>
<path d="M80 51h0"></path>
<path d="M148 51h0"></path>
<path d="M80 51h20"></path>
<g class="terminal">
<path d="M100 51h0"></path>
<path d="M128 51h0"></path>
<rect x="100" y="40" width="28" height="22" rx="10" ry="10"></rect>
<text x="114" y="55">-</text>
</g>
<path d="M128 51h20"></path>
<path d="M80 51a10 10 0 0 1 10 10v10a10 10 0 0 0 10 10"></path>
<g class="terminal">
<path d="M100 81h0"></path>
<path d="M128 81h0"></path>
<rect x="100" y="70" width="28" height="22" rx="10" ry="10"></rect>
<text x="114" y="85">+</text>
</g>
<path d="M128 81a10 10 0 0 0 10 -10v-10a10 10 0 0 1 10 -10"></path>
</g>
<path d="M148 51a10 10 0 0 0 10 -10v0a10 10 0 0 1 10 -10"></path>
</g>
<path d="M168 31h10"></path>
<g class="non-terminal">
<path d="M178 31h0"></path>
<path d="M230 31h0"></path>
<rect x="178" y="20" width="52" height="22"></rect>
<text x="204" y="35">term</text>
</g>
</g>
<path d="M230 31h10"></path>
<path d="M60 31a10 10 0 0 0 -10 10v49a10 10 0 0 0 10 10"></path>
<g>
<path d="M60 100h170"></path>
</g>
<path d="M230 100a10 10 0 0 0 10 -10v-49a10 10 0 0 0 -10 -10"></path>
</g>
<path d="M240 31h10"></path>
<path d="M 250 31 h 20 m -10 -10 v 20 m 10 -20 v 20"></path>
</g>
</svg>
