<svg class="railroad-diagram" width="436" height="139" viewBox="0 0 436 139">
<g transform="translate(.5 .5)">
<path d="M 20 21 v 20 m 10 -20 v 20 m -10 -10 h 20.5"></path>
<path d="M40 31h10"></path>
<g>
<path d="M50 31h0"></path>
<path d="M386 31h0"></path>
<path d="M50 31h10"></path>
<g>
<path d="M60 31h0"></path>
<path d="M376 31h0"></path>
<g>
<path d="M60 31h0"></path>
<path d="M168 31h0"></path>
<path d="M60 31h20"></path>
<g>
<path d="M80 31h68"></path>
</g>
<path d="M148 31h20"></path>
<path d="M60 31a10 10 0 0 1 10 10v0a10 10 0 0 0 10 10"></path>
<g>
<path d="M80 51h0"></path>
<path d="M148 51h0"></path>
<path d="M80 51h20"></path>
<g class="terminal">
<path d="M100 51h0"></path>
<path d="M128 51h0"></path>
<rect x="100" y="40" width="28" height="22" rx="10" ry="10"></rect>
<text x="114" y="55">-</text>
</g>
<path d="M128 51h20"></path>
<path d="M80 51a10 10 0 0 1 10 10v10a10 10 0 0 0 10 10"></path>
<g class="terminal">
<path d="M100 81h0"></path>
<path d="M128 81h0"></path>
<rect x="100" y="70" width="28" height="22" rx="10" ry="10"></rect>
<text x="114" y="85">+</text>
</g>
<path d="M128 81a10 10 0 0 0 10 -10v-10a10 10 0 0 1 10 -10"></path>
</g>
<path d="M148 51a10 10 0 0 0 10 -10v0a10 10 0 0 1 10 -10"></path>
</g>
<g>
<path d="M168 31h0"></path>
<path d="M376 31h0"></path>
<path d="M168 31h20"></path>
<g class="non-terminal">
<path d="M188 31h50"></path>
<path d="M306 31h50"></path>
<rect x="238" y="20" width="68" height="22"></rect>
<text x="272" y="35">decade</text>
</g>
<path d="M356 31h20"></path>
<path d="M168 31a10 10 0 0 1 10 10v10a10 10 0 0 0 10 10"></path>
<g class="non-terminal">
<path d="M188 61h58"></path>
<path d="M298 61h58"></path>
<rect x="246" y="50" width="52" height="22"></rect>
<text x="272" y="65">term</text>
</g>
<path d="M356 61a10 10 0 0 0 10 -10v-10a10 10 0 0 1 10 -10"></path>
<path d="M168 31a10 10 0 0 1 10 10v40a10 10 0 0 0 10 10"></path>
<g>
<path d="M188 91h0"></path>
<path d="M356 91h0"></path>
<g class="terminal">
<path d="M188 91h0"></path>
<path d="M216 91h0"></path>
<rect x="188" y="80" width="28" height="22" rx="10" ry="10"></rect>
<text x="202" y="95">"</text>
</g>
<path d="M216 91h10"></path>
<path d="M226 91h10"></path>
<g>
<path d="M236 91h0"></path>
<path d="M308 91h0"></path>
<path d="M236 91h10"></path>
<g class="non-terminal">
<path d="M246 91h0"></path>
<path d="M298 91h0"></path>
<rect x="246" y="80" width="52" height="22"></rect>
<text x="272" y="95">term</text>
</g>
<path d="M298 91h10"></path>
<path d="M246 91a10 10 0 0 0 -10 10v0a10 10 0 0 0 10 10"></path>
<g>
<path d="M246 111h52"></path>
</g>
<path d="M298 111a10 10 0 0 0 10 -10v0a10 10 0 0 0 -10 -10"></path>
</g>
<path d="M308 91h10"></path>
<path d="M318 91h10"></path>
<g class="terminal">
<path d="M328 91h0"></path>
<path d="M356 91h0"></path>
<rect x="328" y="80" width="28" height="22" rx="10" ry="10"></rect>
<text x="342" y="95">"</text>
</g>
</g>
<path d="M356 91a10 10 0 0 0 10 -10v-40a10 10 0 0 1 10 -10"></path>
</g>
</g>
<path d="M376 31h10"></path>
<path d="M60 31a10 10 0 0 0 -10 10v68a10 10 0 0 0 10 10"></path>
<g>
<path d="M60 119h316"></path>
</g>
<path d="M376 119a10 10 0 0 0 10 -10v-68a10 10 0 0 0 -10 -10"></path>
</g>
<path d="M386 31h10"></path>
<path d="M 396 31 h 20 m -10 -10 v 20 m 10 -20 v 20"></path>
</g>
</svg>
