<svg class="railroad-diagram" width="236" height="92" viewBox="0 0 236 92">
<g transform="translate(.5 .5)">
<path d="M 20 21 v 20 m 10 -20 v 20 m -10 -10 h 20.5"></path>
<g>
<path d="M40 31h0"></path>
<path d="M196 31h0"></path>
<path d="M40 31h20"></path>
<g class="terminal">
<path d="M60 31h0"></path>
<path d="M176 31h0"></path>
<rect x="60" y="20" width="116" height="22" rx="10" ry="10"></rect>
<text x="118" y="35">alphanumeric</text>
</g>
<path d="M176 31h20"></path>
<path d="M40 31a10 10 0 0 1 10 10v10a10 10 0 0 0 10 10"></path>
<g class="non-terminal">
<path d="M60 61h32"></path>
<path d="M144 61h32"></path>
<rect x="92" y="50" width="52" height="22"></rect>
<text x="118" y="65">term</text>
</g>
<path d="M176 61a10 10 0 0 0 10 -10v-10a10 10 0 0 1 10 -10"></path>
</g>
<path d="M 196 31 h 20 m -10 -10 v 20 m 10 -20 v 20"></path>
</g>
</svg>
