<svg class="railroad-diagram" width="180" height="92" viewBox="0 0 180 92">
<g transform="translate(.5 .5)">
<path d="M 20 21 v 20 m 10 -20 v 20 m -10 -10 h 20.5"></path>
<g>
<path d="M40 31h0"></path>
<path d="M140 31h0"></path>
<path d="M40 31h20"></path>
<g class="non-terminal">
<path d="M60 31h4"></path>
<path d="M116 31h4"></path>
<rect x="64" y="20" width="52" height="22"></rect>
<text x="90" y="35">term</text>
</g>
<path d="M120 31h20"></path>
<path d="M40 31a10 10 0 0 1 10 10v10a10 10 0 0 0 10 10"></path>
<g class="non-terminal">
<path d="M60 61h0"></path>
<path d="M120 61h0"></path>
<rect x="60" y="50" width="60" height="22"></rect>
<text x="90" y="65">query</text>
</g>
<path d="M120 61a10 10 0 0 0 10 -10v-10a10 10 0 0 1 10 -10"></path>
</g>
<path d="M 140 31 h 20 m -10 -10 v 20 m 10 -20 v 20"></path>
</g>
</svg>
 
